<mxfile host="Electron" modified="2023-05-24T19:46:36.990Z" agent="Mozilla/5.0 (Macintosh; Intel Mac OS X 10_15_7) AppleWebKit/537.36 (KHTML, like Gecko) draw.io/21.2.8 Chrome/112.0.5615.165 Electron/24.2.0 Safari/537.36" etag="SK4AqUgqx4bXKVGpysCL" version="21.2.8" type="device">
  <diagram id="C5RBs43oDa-KdzZeNtuy" name="Page-1">
    <mxGraphModel dx="310" dy="2885" grid="1" gridSize="10" guides="1" tooltips="1" connect="1" arrows="1" fold="1" page="1" pageScale="1" pageWidth="827" pageHeight="1169" math="0" shadow="0">
      <root>
        <mxCell id="WIyWlLk6GJQsqaUBKTNV-0" />
        <mxCell id="WIyWlLk6GJQsqaUBKTNV-1" parent="WIyWlLk6GJQsqaUBKTNV-0" />
        <mxCell id="RxuFsPBykn9zpoPj2tN5-90" value="" style="rounded=0;whiteSpace=wrap;html=1;fontSize=16;strokeColor=none;fillColor=#E6FFCC;opacity=20;" vertex="1" parent="WIyWlLk6GJQsqaUBKTNV-1">
          <mxGeometry x="2300" y="-315.63" width="680" height="60" as="geometry" />
        </mxCell>
        <mxCell id="RxuFsPBykn9zpoPj2tN5-98" value="" style="rounded=0;whiteSpace=wrap;html=1;fontSize=16;strokeColor=none;fillColor=#FFE6CC;opacity=20;" vertex="1" parent="WIyWlLk6GJQsqaUBKTNV-1">
          <mxGeometry x="2300" y="-225.63" width="680" height="130" as="geometry" />
        </mxCell>
        <mxCell id="RxuFsPBykn9zpoPj2tN5-94" value="" style="rounded=0;whiteSpace=wrap;html=1;fontSize=16;strokeColor=none;fillColor=#CCCCFF;opacity=20;" vertex="1" parent="WIyWlLk6GJQsqaUBKTNV-1">
          <mxGeometry x="2300" y="94.37" width="680" height="490" as="geometry" />
        </mxCell>
        <mxCell id="RxuFsPBykn9zpoPj2tN5-92" value="" style="rounded=0;whiteSpace=wrap;html=1;fontSize=16;strokeColor=none;fillColor=#CCFFFF;opacity=20;" vertex="1" parent="WIyWlLk6GJQsqaUBKTNV-1">
          <mxGeometry x="2300" y="-85.75999999999999" width="680" height="140" as="geometry" />
        </mxCell>
        <mxCell id="RxuFsPBykn9zpoPj2tN5-93" value="build" style="text;html=1;strokeColor=none;fillColor=none;align=left;verticalAlign=middle;whiteSpace=wrap;rounded=0;fontSize=16;fontColor=#00CCCC;" vertex="1" parent="WIyWlLk6GJQsqaUBKTNV-1">
          <mxGeometry x="2310" y="-84.42999999999995" width="60" height="29.81" as="geometry" />
        </mxCell>
        <mxCell id="RxuFsPBykn9zpoPj2tN5-76" value="" style="rounded=0;whiteSpace=wrap;html=1;fontSize=16;strokeColor=none;fillColor=#FFE6CC;opacity=20;" vertex="1" parent="WIyWlLk6GJQsqaUBKTNV-1">
          <mxGeometry x="2360" y="905" width="560" height="180" as="geometry" />
        </mxCell>
        <mxCell id="RxuFsPBykn9zpoPj2tN5-57" value="" style="rounded=0;whiteSpace=wrap;html=1;fontSize=16;strokeColor=none;fillColor=#CCFFFF;opacity=20;" vertex="1" parent="WIyWlLk6GJQsqaUBKTNV-1">
          <mxGeometry x="2360" y="1313.99" width="560" height="80" as="geometry" />
        </mxCell>
        <mxCell id="RxuFsPBykn9zpoPj2tN5-55" value="" style="rounded=0;whiteSpace=wrap;html=1;fontSize=16;strokeColor=none;fillColor=#CCCCFF;opacity=20;" vertex="1" parent="WIyWlLk6GJQsqaUBKTNV-1">
          <mxGeometry x="2359.99" y="1454.1" width="560" height="339.88" as="geometry" />
        </mxCell>
        <mxCell id="RxuFsPBykn9zpoPj2tN5-54" value="" style="rounded=0;whiteSpace=wrap;html=1;fontSize=16;strokeColor=none;fillColor=#E6FFCC;opacity=20;" vertex="1" parent="WIyWlLk6GJQsqaUBKTNV-1">
          <mxGeometry x="2360" y="1145.63" width="560" height="80" as="geometry" />
        </mxCell>
        <mxCell id="J_il53s5iSnK6nftCSh8-21" value="Build &quot;review&quot; configuration resource" style="rounded=1;whiteSpace=wrap;html=1;fontSize=12;glass=0;strokeWidth=1;shadow=0;verticalAlign=top;spacingTop=5;" parent="WIyWlLk6GJQsqaUBKTNV-1" vertex="1">
          <mxGeometry x="2440.12" y="-75.63" width="359.75" height="120" as="geometry" />
        </mxCell>
        <mxCell id="xA1c-mV5jnr1yYVfnVHg-33" value="Create registry &quot;watch&quot; resource&lt;br&gt;&lt;br&gt;&lt;i&gt;OCIRepository&lt;/i&gt;" style="rounded=1;whiteSpace=wrap;html=1;fontSize=12;glass=0;strokeWidth=1;shadow=0;fillColor=none;" parent="WIyWlLk6GJQsqaUBKTNV-1" vertex="1">
          <mxGeometry x="2449.13" y="-36.129999999999995" width="139.75" height="69.02" as="geometry" />
        </mxCell>
        <mxCell id="xA1c-mV5jnr1yYVfnVHg-35" value="Create branch-specific&lt;br&gt;cluster configuration resource&lt;br&gt;&lt;br&gt;&lt;i&gt;Kustomization&lt;/i&gt;" style="rounded=1;whiteSpace=wrap;html=1;fontSize=12;glass=0;strokeWidth=1;shadow=0;fillColor=none;" parent="WIyWlLk6GJQsqaUBKTNV-1" vertex="1">
          <mxGeometry x="2600" y="-36.129999999999995" width="190" height="69.02" as="geometry" />
        </mxCell>
        <mxCell id="xA1c-mV5jnr1yYVfnVHg-52" style="edgeStyle=orthogonalEdgeStyle;rounded=0;orthogonalLoop=1;jettySize=auto;html=1;exitX=1;exitY=0.5;exitDx=0;exitDy=0;entryX=0.5;entryY=1;entryDx=0;entryDy=0;startArrow=block;startFill=0;dashed=1;endArrow=block;endFill=0;" parent="WIyWlLk6GJQsqaUBKTNV-1" source="xA1c-mV5jnr1yYVfnVHg-37" target="xA1c-mV5jnr1yYVfnVHg-46" edge="1">
          <mxGeometry relative="1" as="geometry" />
        </mxCell>
        <mxCell id="xA1c-mV5jnr1yYVfnVHg-37" value="Flux&lt;br&gt;&lt;div style=&quot;&quot;&gt;&lt;span style=&quot;background-color: initial;&quot;&gt;&amp;nbsp; - observes a new review artifact&lt;/span&gt;&lt;/div&gt;&lt;div style=&quot;&quot;&gt;&lt;span style=&quot;background-color: initial;&quot;&gt;&amp;nbsp; - reconciles &quot;review&quot; app image specified in artifact&lt;/span&gt;&lt;/div&gt;" style="rounded=1;whiteSpace=wrap;html=1;fontSize=12;glass=0;strokeWidth=1;shadow=0;align=left;spacingLeft=10;verticalAlign=top;spacingTop=5;" parent="WIyWlLk6GJQsqaUBKTNV-1" vertex="1">
          <mxGeometry x="2460" y="504.49" width="320" height="69.88" as="geometry" />
        </mxCell>
        <mxCell id="xA1c-mV5jnr1yYVfnVHg-39" value="&quot;review&quot; job:&lt;br&gt;&lt;ol&gt;&lt;li&gt;pulls branch-specific &quot;review&quot; configuration resource from cluster&lt;/li&gt;&lt;li&gt;creates a commit-specific &quot;review&quot; configuration artifact from the &quot;deploy-vars&quot; ConfigMap resource&lt;/li&gt;&lt;/ol&gt;&lt;ul&gt;&lt;ul&gt;&lt;li&gt;&lt;span style=&quot;background-color: initial;&quot;&gt;contains GIT_TAG, IMAGE_TAG from commits&lt;/span&gt;&lt;/li&gt;&lt;/ul&gt;&lt;/ul&gt;&lt;span style=&quot;background-color: initial;&quot;&gt;&amp;nbsp; &amp;nbsp; &amp;nbsp; &amp;nbsp; 3. pushes configuration artifact to registry&lt;/span&gt;&lt;br&gt;&lt;font style=&quot;font-size: 12px;&quot;&gt;&lt;br&gt;&lt;br&gt;&lt;br&gt;&lt;br&gt;&lt;br&gt;&lt;br&gt;&lt;br&gt;&lt;br&gt;&lt;br&gt;&lt;br&gt;&lt;br style=&quot;&quot;&gt;&lt;/font&gt;&lt;div style=&quot;text-align: center;&quot;&gt;&lt;i style=&quot;background-color: initial;&quot;&gt;deploy-vars configured Kustomization&lt;sup style=&quot;border-color: var(--border-color);&quot;&gt;Δ&lt;/sup&gt;&amp;nbsp;➔&amp;nbsp;artifact.yaml&lt;/i&gt;&lt;/div&gt;" style="rounded=1;whiteSpace=wrap;html=1;fontSize=12;glass=0;strokeWidth=1;shadow=0;align=left;spacingLeft=10;spacingRight=5;spacing=5;verticalAlign=top;spacingTop=10;" parent="WIyWlLk6GJQsqaUBKTNV-1" vertex="1">
          <mxGeometry x="2440" y="104.37" width="360" height="350" as="geometry" />
        </mxCell>
        <mxCell id="xA1c-mV5jnr1yYVfnVHg-40" value="" style="rounded=0;html=1;jettySize=auto;orthogonalLoop=1;fontSize=11;endArrow=block;endFill=0;endSize=8;strokeWidth=1;shadow=0;labelBackgroundColor=none;edgeStyle=orthogonalEdgeStyle;exitX=0.5;exitY=1;exitDx=0;exitDy=0;entryX=0.5;entryY=0;entryDx=0;entryDy=0;" parent="WIyWlLk6GJQsqaUBKTNV-1" source="xA1c-mV5jnr1yYVfnVHg-39" target="xA1c-mV5jnr1yYVfnVHg-37" edge="1">
          <mxGeometry relative="1" as="geometry">
            <mxPoint x="2622.5" y="634.5" as="targetPoint" />
            <mxPoint x="2622.29" y="624.5" as="sourcePoint" />
          </mxGeometry>
        </mxCell>
        <mxCell id="xA1c-mV5jnr1yYVfnVHg-42" value="" style="rounded=0;html=1;jettySize=auto;orthogonalLoop=1;fontSize=11;endArrow=block;endFill=0;endSize=8;strokeWidth=1;shadow=0;labelBackgroundColor=none;edgeStyle=orthogonalEdgeStyle;exitX=0.5;exitY=1;exitDx=0;exitDy=0;entryX=0.5;entryY=0;entryDx=0;entryDy=0;" parent="WIyWlLk6GJQsqaUBKTNV-1" source="J_il53s5iSnK6nftCSh8-11" target="J_il53s5iSnK6nftCSh8-9" edge="1">
          <mxGeometry relative="1" as="geometry">
            <mxPoint x="2620" y="-305.4999999999999" as="targetPoint" />
            <mxPoint x="2622.5" y="-284.63" as="sourcePoint" />
            <Array as="points">
              <mxPoint x="2620" y="-325.4999999999999" />
              <mxPoint x="2620" y="-325.4999999999999" />
            </Array>
          </mxGeometry>
        </mxCell>
        <mxCell id="xA1c-mV5jnr1yYVfnVHg-30" value="Verify namespace" style="rounded=1;whiteSpace=wrap;html=1;fontSize=12;glass=0;strokeWidth=1;shadow=0;" parent="WIyWlLk6GJQsqaUBKTNV-1" vertex="1">
          <mxGeometry x="2580" y="-215.63" width="80" height="40" as="geometry" />
        </mxCell>
        <mxCell id="xA1c-mV5jnr1yYVfnVHg-46" value="Build app image &lt;br&gt;&lt;i&gt;+ push to registry&lt;/i&gt;" style="rounded=1;whiteSpace=wrap;html=1;fontSize=12;glass=0;strokeWidth=1;shadow=0;" parent="WIyWlLk6GJQsqaUBKTNV-1" vertex="1">
          <mxGeometry x="2820" y="-75.63" width="120" height="120" as="geometry" />
        </mxCell>
        <mxCell id="xA1c-mV5jnr1yYVfnVHg-49" style="edgeStyle=orthogonalEdgeStyle;rounded=0;orthogonalLoop=1;jettySize=auto;html=1;entryX=0.5;entryY=0;entryDx=0;entryDy=0;exitX=0.5;exitY=1;exitDx=0;exitDy=0;" parent="WIyWlLk6GJQsqaUBKTNV-1" source="J_il53s5iSnK6nftCSh8-9" target="xA1c-mV5jnr1yYVfnVHg-46" edge="1">
          <mxGeometry relative="1" as="geometry">
            <mxPoint x="2690" y="-245.63" as="sourcePoint" />
            <Array as="points">
              <mxPoint x="2620" y="-245.63" />
              <mxPoint x="2880" y="-245.63" />
            </Array>
          </mxGeometry>
        </mxCell>
        <mxCell id="xA1c-mV5jnr1yYVfnVHg-50" value="" style="rounded=0;html=1;jettySize=auto;orthogonalLoop=1;fontSize=11;endArrow=block;endFill=0;endSize=8;strokeWidth=1;shadow=0;labelBackgroundColor=none;edgeStyle=orthogonalEdgeStyle;exitX=1;exitY=0.5;exitDx=0;exitDy=0;entryX=0;entryY=0.5;entryDx=0;entryDy=0;" parent="WIyWlLk6GJQsqaUBKTNV-1" source="RxuFsPBykn9zpoPj2tN5-96" target="J_il53s5iSnK6nftCSh8-13" edge="1">
          <mxGeometry relative="1" as="geometry">
            <mxPoint x="2632.5" y="95.49000000000001" as="targetPoint" />
            <mxPoint x="2727.5" y="-4.509999999999991" as="sourcePoint" />
          </mxGeometry>
        </mxCell>
        <mxCell id="xA1c-mV5jnr1yYVfnVHg-51" value="&lt;i&gt;feature/fix branch&lt;/i&gt;" style="text;html=1;strokeColor=none;fillColor=none;align=center;verticalAlign=middle;whiteSpace=wrap;rounded=0;" parent="WIyWlLk6GJQsqaUBKTNV-1" vertex="1">
          <mxGeometry x="2459" y="-390.55999999999983" width="120" height="30" as="geometry" />
        </mxCell>
        <mxCell id="J_il53s5iSnK6nftCSh8-9" value="Get info" style="rounded=1;whiteSpace=wrap;html=1;fontSize=12;glass=0;strokeWidth=1;shadow=0;align=center;spacingLeft=0;container=0;" parent="WIyWlLk6GJQsqaUBKTNV-1" vertex="1">
          <mxGeometry x="2560" y="-305.63" width="120" height="40" as="geometry">
            <mxRectangle x="870.25" y="-939" width="90" height="30" as="alternateBounds" />
          </mxGeometry>
        </mxCell>
        <mxCell id="J_il53s5iSnK6nftCSh8-11" value="Commit" style="rounded=1;whiteSpace=wrap;html=1;fontSize=12;glass=0;strokeWidth=1;shadow=0;strokeColor=#FF0000;" parent="WIyWlLk6GJQsqaUBKTNV-1" vertex="1">
          <mxGeometry x="2580" y="-395.4999999999999" width="80" height="40" as="geometry" />
        </mxCell>
        <mxCell id="J_il53s5iSnK6nftCSh8-12" value="Verify TLS secrets" style="rounded=1;whiteSpace=wrap;html=1;fontSize=12;glass=0;strokeWidth=1;shadow=0;" parent="WIyWlLk6GJQsqaUBKTNV-1" vertex="1">
          <mxGeometry x="2580" y="-155.63" width="80" height="40" as="geometry" />
        </mxCell>
        <mxCell id="J_il53s5iSnK6nftCSh8-13" value="Push configured artifact to image registry&lt;br&gt;&lt;br&gt;&lt;i&gt;artifact.yaml&lt;/i&gt;" style="rounded=1;whiteSpace=wrap;html=1;fontSize=12;glass=0;strokeWidth=1;shadow=0;align=center;spacingLeft=5;spacingRight=5;spacing=5;" parent="WIyWlLk6GJQsqaUBKTNV-1" vertex="1">
          <mxGeometry x="2637.5" y="304.45" width="120" height="90.05" as="geometry" />
        </mxCell>
        <mxCell id="J_il53s5iSnK6nftCSh8-14" value="" style="rounded=0;html=1;jettySize=auto;orthogonalLoop=1;fontSize=11;endArrow=block;endFill=0;endSize=8;strokeWidth=1;shadow=0;labelBackgroundColor=none;edgeStyle=orthogonalEdgeStyle;exitX=0.5;exitY=1;exitDx=0;exitDy=0;entryX=0.5;entryY=0;entryDx=0;entryDy=0;" parent="WIyWlLk6GJQsqaUBKTNV-1" source="J_il53s5iSnK6nftCSh8-9" target="xA1c-mV5jnr1yYVfnVHg-30" edge="1">
          <mxGeometry relative="1" as="geometry">
            <mxPoint x="2620" y="-235.5" as="targetPoint" />
            <mxPoint x="2619.5" y="-254.51000000000022" as="sourcePoint" />
          </mxGeometry>
        </mxCell>
        <mxCell id="J_il53s5iSnK6nftCSh8-15" value="" style="rounded=0;html=1;jettySize=auto;orthogonalLoop=1;fontSize=11;endArrow=block;endFill=0;endSize=8;strokeWidth=1;shadow=0;labelBackgroundColor=none;edgeStyle=orthogonalEdgeStyle;exitX=0.5;exitY=1;exitDx=0;exitDy=0;entryX=0.5;entryY=0;entryDx=0;entryDy=0;" parent="WIyWlLk6GJQsqaUBKTNV-1" source="J_il53s5iSnK6nftCSh8-12" target="J_il53s5iSnK6nftCSh8-21" edge="1">
          <mxGeometry relative="1" as="geometry">
            <mxPoint x="2620" y="-83.61499999999967" as="targetPoint" />
            <mxPoint x="2632.5" y="-204.51" as="sourcePoint" />
          </mxGeometry>
        </mxCell>
        <mxCell id="J_il53s5iSnK6nftCSh8-17" value="&lt;h1&gt;Review Pipeline&lt;/h1&gt;" style="text;html=1;strokeColor=none;fillColor=none;align=center;verticalAlign=middle;whiteSpace=wrap;rounded=0;fontColor=#CC6600;" parent="WIyWlLk6GJQsqaUBKTNV-1" vertex="1">
          <mxGeometry x="2300" y="-476.9999999999999" width="200" height="40" as="geometry" />
        </mxCell>
        <mxCell id="J_il53s5iSnK6nftCSh8-18" value="CI_COMMIT_AUTHOR == &quot;Jo Blo &amp;lt;joblo@bcit.ca&amp;gt;&quot;" style="text;html=1;strokeColor=none;fillColor=none;align=center;verticalAlign=middle;whiteSpace=wrap;rounded=0;fontColor=#FF0000;" parent="WIyWlLk6GJQsqaUBKTNV-1" vertex="1">
          <mxGeometry x="2619.5" y="-436.9999999999999" width="200.5" height="40.5" as="geometry" />
        </mxCell>
        <mxCell id="J_il53s5iSnK6nftCSh8-20" value="" style="rounded=0;html=1;jettySize=auto;orthogonalLoop=1;fontSize=11;endArrow=block;endFill=0;endSize=8;strokeWidth=1;shadow=0;labelBackgroundColor=none;edgeStyle=orthogonalEdgeStyle;fontColor=#FF0000;strokeColor=#FF0000;entryX=0.5;entryY=0;entryDx=0;entryDy=0;" parent="WIyWlLk6GJQsqaUBKTNV-1" target="J_il53s5iSnK6nftCSh8-11" edge="1">
          <mxGeometry relative="1" as="geometry">
            <mxPoint x="2619" y="-396.4999999999999" as="targetPoint" />
            <mxPoint x="2620" y="-455.4999999999999" as="sourcePoint" />
            <Array as="points">
              <mxPoint x="2619" y="-436.4999999999999" />
              <mxPoint x="2619" y="-436.4999999999999" />
            </Array>
          </mxGeometry>
        </mxCell>
        <mxCell id="RxuFsPBykn9zpoPj2tN5-1" value="Commit&lt;br&gt;(either direct or via merge)" style="rounded=1;whiteSpace=wrap;html=1;fontSize=12;glass=0;strokeWidth=1;shadow=0;strokeColor=#FF0000;" vertex="1" parent="WIyWlLk6GJQsqaUBKTNV-1">
          <mxGeometry x="2540" y="770.25" width="200" height="40" as="geometry" />
        </mxCell>
        <mxCell id="RxuFsPBykn9zpoPj2tN5-3" value="Build image&lt;br&gt;&lt;i&gt;+ push to registry&lt;/i&gt;" style="rounded=1;whiteSpace=wrap;html=1;fontSize=12;glass=0;strokeWidth=1;shadow=0;" vertex="1" parent="WIyWlLk6GJQsqaUBKTNV-1">
          <mxGeometry x="2560" y="1325.19" width="160" height="60" as="geometry" />
        </mxCell>
        <mxCell id="RxuFsPBykn9zpoPj2tN5-4" value="&lt;i&gt;main branch&lt;/i&gt;" style="text;html=1;strokeColor=none;fillColor=none;align=center;verticalAlign=middle;whiteSpace=wrap;rounded=0;" vertex="1" parent="WIyWlLk6GJQsqaUBKTNV-1">
          <mxGeometry x="2445.01" y="775.5" width="100" height="30" as="geometry" />
        </mxCell>
        <mxCell id="RxuFsPBykn9zpoPj2tN5-5" value="Flux&lt;br&gt;&lt;div style=&quot;&quot;&gt;&lt;span style=&quot;background-color: initial;&quot;&gt;&amp;nbsp; - observes git repo change&lt;/span&gt;&lt;/div&gt;&lt;div style=&quot;&quot;&gt;&lt;span style=&quot;background-color: initial;&quot;&gt;&amp;nbsp; - reconciles workload&lt;/span&gt;&lt;/div&gt;" style="rounded=1;whiteSpace=wrap;html=1;fontSize=12;glass=0;strokeWidth=1;shadow=0;align=left;spacingLeft=5;" vertex="1" parent="WIyWlLk6GJQsqaUBKTNV-1">
          <mxGeometry x="2540" y="1704.9899999999998" width="200" height="80" as="geometry" />
        </mxCell>
        <mxCell id="RxuFsPBykn9zpoPj2tN5-6" value="Flux &lt;i&gt;(imageAutomation)&lt;/i&gt;&lt;br&gt;&lt;div style=&quot;&quot;&gt;&lt;span style=&quot;background-color: initial;&quot;&gt;&amp;nbsp; - observes a new registry image&lt;/span&gt;&lt;/div&gt;&lt;div style=&quot;&quot;&gt;&lt;span style=&quot;background-color: initial;&quot;&gt;&amp;nbsp; - writes new tags to git repo&lt;/span&gt;&lt;/div&gt;" style="rounded=1;whiteSpace=wrap;html=1;fontSize=12;glass=0;strokeWidth=1;shadow=0;align=left;spacingLeft=5;" vertex="1" parent="WIyWlLk6GJQsqaUBKTNV-1">
          <mxGeometry x="2520" y="1465.24" width="240" height="60" as="geometry" />
        </mxCell>
        <mxCell id="RxuFsPBykn9zpoPj2tN5-7" value="Get info" style="rounded=1;whiteSpace=wrap;html=1;fontSize=12;glass=0;strokeWidth=1;shadow=0;align=center;spacingLeft=5;container=0;" vertex="1" parent="WIyWlLk6GJQsqaUBKTNV-1">
          <mxGeometry x="2580" y="1154.62" width="120" height="60" as="geometry">
            <mxRectangle x="870.25" y="-939" width="90" height="30" as="alternateBounds" />
          </mxGeometry>
        </mxCell>
        <mxCell id="RxuFsPBykn9zpoPj2tN5-8" value="CI_COMMIT_AUTHOR == &quot;fluxcdbot@issues.ltc.bcit.ca&quot;" style="text;html=1;strokeColor=none;fillColor=none;align=center;verticalAlign=middle;whiteSpace=wrap;rounded=0;fontColor=#FF0000;" vertex="1" parent="WIyWlLk6GJQsqaUBKTNV-1">
          <mxGeometry x="2639.9900000000002" y="1565.06" width="200" height="40" as="geometry" />
        </mxCell>
        <mxCell id="RxuFsPBykn9zpoPj2tN5-9" value="" style="rounded=0;html=1;jettySize=auto;orthogonalLoop=1;fontSize=11;endArrow=block;endFill=0;endSize=8;strokeWidth=1;shadow=0;labelBackgroundColor=none;edgeStyle=orthogonalEdgeStyle;exitX=0.5;exitY=1;exitDx=0;exitDy=0;entryX=0.5;entryY=0;entryDx=0;entryDy=0;" edge="1" parent="WIyWlLk6GJQsqaUBKTNV-1" source="RxuFsPBykn9zpoPj2tN5-7" target="RxuFsPBykn9zpoPj2tN5-3">
          <mxGeometry relative="1" as="geometry">
            <mxPoint x="2600.25" y="1390.25" as="targetPoint" />
            <mxPoint x="2610.25" y="1440.25" as="sourcePoint" />
          </mxGeometry>
        </mxCell>
        <mxCell id="RxuFsPBykn9zpoPj2tN5-10" value="Commit" style="rounded=1;whiteSpace=wrap;html=1;fontSize=12;glass=0;strokeWidth=1;shadow=0;strokeColor=#FF0000;" vertex="1" parent="WIyWlLk6GJQsqaUBKTNV-1">
          <mxGeometry x="2560" y="1605.06" width="160" height="40" as="geometry" />
        </mxCell>
        <mxCell id="RxuFsPBykn9zpoPj2tN5-11" value="CI_COMMIT_AUTHOR == &quot;Jo Blo &amp;lt;joblo@bcit.ca&amp;gt;&quot;" style="text;html=1;strokeColor=none;fillColor=none;align=center;verticalAlign=middle;whiteSpace=wrap;rounded=0;fontColor=#FF0000;" vertex="1" parent="WIyWlLk6GJQsqaUBKTNV-1">
          <mxGeometry x="2639.99" y="729.5" width="200.01" height="40.5" as="geometry" />
        </mxCell>
        <mxCell id="RxuFsPBykn9zpoPj2tN5-12" value="" style="rounded=0;html=1;jettySize=auto;orthogonalLoop=1;fontSize=11;endArrow=block;endFill=0;endSize=8;strokeWidth=1;shadow=0;labelBackgroundColor=none;edgeStyle=orthogonalEdgeStyle;exitX=0.5;exitY=1;exitDx=0;exitDy=0;entryX=0.5;entryY=0;entryDx=0;entryDy=0;fontColor=#FF0000;strokeColor=#FF0000;" edge="1" parent="WIyWlLk6GJQsqaUBKTNV-1" source="RxuFsPBykn9zpoPj2tN5-6" target="RxuFsPBykn9zpoPj2tN5-10">
          <mxGeometry relative="1" as="geometry">
            <mxPoint x="2355.49" y="1613.6200000000003" as="targetPoint" />
            <mxPoint x="2595.49" y="1633.5" as="sourcePoint" />
            <Array as="points" />
          </mxGeometry>
        </mxCell>
        <mxCell id="RxuFsPBykn9zpoPj2tN5-13" value="Determine version&lt;br&gt;(semantic-release)" style="rounded=1;whiteSpace=wrap;html=1;fontSize=12;glass=0;strokeWidth=1;shadow=0;" vertex="1" parent="WIyWlLk6GJQsqaUBKTNV-1">
          <mxGeometry x="2540" y="915" width="200" height="60" as="geometry" />
        </mxCell>
        <mxCell id="RxuFsPBykn9zpoPj2tN5-14" value="new&lt;br&gt;semver&lt;br&gt;tag?" style="rhombus;whiteSpace=wrap;html=1;verticalAlign=middle;" vertex="1" parent="WIyWlLk6GJQsqaUBKTNV-1">
          <mxGeometry x="2598.76" y="975.0000000000002" width="82.47" height="80" as="geometry" />
        </mxCell>
        <mxCell id="RxuFsPBykn9zpoPj2tN5-16" value="" style="shape=curlyBracket;whiteSpace=wrap;html=1;rounded=1;labelPosition=left;verticalLabelPosition=middle;align=right;verticalAlign=middle;" vertex="1" parent="WIyWlLk6GJQsqaUBKTNV-1">
          <mxGeometry x="2350" y="1144.63" width="20" height="80" as="geometry" />
        </mxCell>
        <mxCell id="RxuFsPBykn9zpoPj2tN5-17" value="" style="shape=curlyBracket;whiteSpace=wrap;html=1;rounded=1;labelPosition=left;verticalLabelPosition=middle;align=right;verticalAlign=middle;" vertex="1" parent="WIyWlLk6GJQsqaUBKTNV-1">
          <mxGeometry x="2350" y="1455.1299999999999" width="20" height="180" as="geometry" />
        </mxCell>
        <mxCell id="RxuFsPBykn9zpoPj2tN5-19" value="Yes" style="edgeLabel;html=1;align=center;verticalAlign=middle;resizable=0;points=[];rotation=0;" vertex="1" connectable="0" parent="WIyWlLk6GJQsqaUBKTNV-1">
          <mxGeometry x="2699.999999739962" y="1313.9899999999996" as="geometry">
            <mxPoint x="-11" y="-309" as="offset" />
          </mxGeometry>
        </mxCell>
        <mxCell id="RxuFsPBykn9zpoPj2tN5-20" value="" style="rounded=0;html=1;jettySize=auto;orthogonalLoop=1;fontSize=11;endArrow=block;endFill=0;endSize=8;strokeWidth=1;shadow=0;labelBackgroundColor=none;edgeStyle=orthogonalEdgeStyle;entryX=0.5;entryY=0;entryDx=0;entryDy=0;fontColor=#FF0000;strokeColor=#FF0000;" edge="1" parent="WIyWlLk6GJQsqaUBKTNV-1" target="RxuFsPBykn9zpoPj2tN5-1">
          <mxGeometry relative="1" as="geometry">
            <mxPoint x="2595.01" y="755" as="targetPoint" />
            <mxPoint x="2640" y="720" as="sourcePoint" />
          </mxGeometry>
        </mxCell>
        <mxCell id="RxuFsPBykn9zpoPj2tN5-21" value="" style="rounded=0;html=1;jettySize=auto;orthogonalLoop=1;fontSize=11;endArrow=block;endFill=0;endSize=8;strokeWidth=1;shadow=0;labelBackgroundColor=none;edgeStyle=orthogonalEdgeStyle;exitX=0.5;exitY=1;exitDx=0;exitDy=0;entryX=0.5;entryY=0;entryDx=0;entryDy=0;" edge="1" parent="WIyWlLk6GJQsqaUBKTNV-1" source="RxuFsPBykn9zpoPj2tN5-14" target="RxuFsPBykn9zpoPj2tN5-7">
          <mxGeometry relative="1" as="geometry">
            <mxPoint x="2600" y="1625" as="targetPoint" />
            <mxPoint x="2551.53" y="1954" as="sourcePoint" />
          </mxGeometry>
        </mxCell>
        <mxCell id="RxuFsPBykn9zpoPj2tN5-23" value="** triggers pipeline, git tag commit" style="text;html=1;strokeColor=none;fillColor=none;align=left;verticalAlign=top;whiteSpace=wrap;rounded=0;fontColor=#FF0000;spacingLeft=0;spacingTop=0;" vertex="1" parent="WIyWlLk6GJQsqaUBKTNV-1">
          <mxGeometry x="2681.23" y="1015" width="188.77" height="30" as="geometry" />
        </mxCell>
        <mxCell id="RxuFsPBykn9zpoPj2tN5-27" value="" style="rounded=0;html=1;jettySize=auto;orthogonalLoop=1;fontSize=11;endArrow=block;endFill=0;endSize=8;strokeWidth=1;shadow=0;labelBackgroundColor=none;edgeStyle=orthogonalEdgeStyle;exitX=1;exitY=0.5;exitDx=0;exitDy=0;dashed=1;dashPattern=8 8;strokeColor=#000000;" edge="1" parent="WIyWlLk6GJQsqaUBKTNV-1" source="RxuFsPBykn9zpoPj2tN5-14">
          <mxGeometry relative="1" as="geometry">
            <mxPoint x="2640" y="875" as="targetPoint" />
            <Array as="points">
              <mxPoint x="2880" y="1015" />
              <mxPoint x="2880" y="855" />
              <mxPoint x="2640" y="855" />
            </Array>
            <mxPoint x="2667" y="1527" as="sourcePoint" />
          </mxGeometry>
        </mxCell>
        <mxCell id="RxuFsPBykn9zpoPj2tN5-28" value="&lt;i&gt;[skip ci]&lt;/i&gt;" style="text;html=1;strokeColor=none;fillColor=none;align=center;verticalAlign=middle;whiteSpace=wrap;rounded=0;fontColor=#FF0000;" vertex="1" parent="WIyWlLk6GJQsqaUBKTNV-1">
          <mxGeometry x="2481" y="1605.06" width="80" height="40" as="geometry" />
        </mxCell>
        <mxCell id="RxuFsPBykn9zpoPj2tN5-29" value="No" style="edgeLabel;html=1;align=center;verticalAlign=middle;resizable=0;points=[];rotation=0;" vertex="1" connectable="0" parent="WIyWlLk6GJQsqaUBKTNV-1">
          <mxGeometry x="2639.9899997399616" y="1404.9999999999995" as="geometry">
            <mxPoint x="-14" y="-342" as="offset" />
          </mxGeometry>
        </mxCell>
        <mxCell id="RxuFsPBykn9zpoPj2tN5-30" value="" style="rounded=0;html=1;jettySize=auto;orthogonalLoop=1;fontSize=11;endArrow=block;endFill=0;endSize=8;strokeWidth=1;shadow=0;labelBackgroundColor=none;edgeStyle=orthogonalEdgeStyle;exitX=0.5;exitY=1;exitDx=0;exitDy=0;entryX=0.5;entryY=0;entryDx=0;entryDy=0;" edge="1" parent="WIyWlLk6GJQsqaUBKTNV-1" source="RxuFsPBykn9zpoPj2tN5-3" target="RxuFsPBykn9zpoPj2tN5-6">
          <mxGeometry relative="1" as="geometry">
            <mxPoint x="2610" y="1484" as="targetPoint" />
            <Array as="points" />
            <mxPoint x="2610" y="1395" as="sourcePoint" />
          </mxGeometry>
        </mxCell>
        <mxCell id="RxuFsPBykn9zpoPj2tN5-33" value="" style="rounded=0;html=1;jettySize=auto;orthogonalLoop=1;fontSize=11;endArrow=block;endFill=0;endSize=8;strokeWidth=1;shadow=0;labelBackgroundColor=none;edgeStyle=orthogonalEdgeStyle;exitX=0.5;exitY=1;exitDx=0;exitDy=0;entryX=0.5;entryY=0;entryDx=0;entryDy=0;" edge="1" parent="WIyWlLk6GJQsqaUBKTNV-1" source="RxuFsPBykn9zpoPj2tN5-10" target="RxuFsPBykn9zpoPj2tN5-5">
          <mxGeometry relative="1" as="geometry">
            <mxPoint x="2580" y="1635" as="targetPoint" />
            <mxPoint x="2771" y="1615" as="sourcePoint" />
          </mxGeometry>
        </mxCell>
        <mxCell id="RxuFsPBykn9zpoPj2tN5-36" value="&lt;span style=&quot;border-color: var(--border-color);&quot;&gt;&lt;b style=&quot;border-color: var(--border-color);&quot;&gt;Repo state (&lt;/b&gt;&lt;font style=&quot;border-color: var(--border-color);&quot; face=&quot;Courier New&quot;&gt;latest&lt;/font&gt;&amp;nbsp;kustomization)&lt;b style=&quot;border-color: var(--border-color);&quot;&gt;:&lt;/b&gt;&lt;br style=&quot;border-color: var(--border-color);&quot;&gt;GIT_TAG:&amp;nbsp;&lt;i style=&quot;border-color: var(--border-color);&quot;&gt;previous tag&lt;br style=&quot;border-color: var(--border-color);&quot;&gt;&lt;/i&gt;IMAGE_TAG:&amp;nbsp;&lt;i style=&quot;border-color: var(--border-color);&quot;&gt;previous tag&lt;/i&gt;&lt;br style=&quot;border-color: var(--border-color);&quot;&gt;&lt;br style=&quot;border-color: var(--border-color);&quot;&gt;&lt;b style=&quot;border-color: var(--border-color);&quot;&gt;Cluster state (deployment):&lt;br style=&quot;border-color: var(--border-color);&quot;&gt;&lt;/b&gt;GIT_TAG: n/a&lt;br style=&quot;border-color: var(--border-color);&quot;&gt;IMAGE_TAG:&amp;nbsp;&lt;i style=&quot;border-color: var(--border-color);&quot;&gt;previous tag&lt;/i&gt;&lt;br style=&quot;border-color: var(--border-color);&quot;&gt;&lt;br style=&quot;border-color: var(--border-color);&quot;&gt;&lt;b style=&quot;border-color: var(--border-color);&quot;&gt;Registry state (most recent tag):&lt;br style=&quot;border-color: var(--border-color);&quot;&gt;&lt;/b&gt;&lt;font style=&quot;border-color: var(--border-color);&quot;&gt;IMAGE_TAG:&amp;nbsp;&lt;/font&gt;&lt;i style=&quot;border-color: var(--border-color);&quot;&gt;previous tag&lt;/i&gt;&lt;br&gt;&lt;/span&gt;" style="text;html=1;strokeColor=none;fillColor=none;align=left;verticalAlign=top;whiteSpace=wrap;rounded=0;" vertex="1" parent="WIyWlLk6GJQsqaUBKTNV-1">
          <mxGeometry x="2100" y="1104.76" width="240" height="159.75" as="geometry" />
        </mxCell>
        <mxCell id="RxuFsPBykn9zpoPj2tN5-37" value="&lt;b&gt;Repo state (&lt;/b&gt;&lt;font style=&quot;border-color: var(--border-color);&quot; face=&quot;Courier New&quot;&gt;latest&lt;/font&gt;&amp;nbsp;kustomization)&lt;b&gt;:&lt;/b&gt;&lt;br&gt;GIT_TAG: &lt;i&gt;previous tag&lt;br&gt;&lt;/i&gt;IMAGE_TAG:&amp;nbsp;&lt;i style=&quot;border-color: var(--border-color);&quot;&gt;previous tag&lt;/i&gt;&lt;br&gt;&lt;br&gt;&lt;b&gt;Cluster state (deployment):&lt;br&gt;&lt;/b&gt;GIT_TAG: n/a&lt;br&gt;IMAGE_TAG:&amp;nbsp;&lt;span style=&quot;border-color: var(--border-color);&quot;&gt;&lt;i&gt;previous tag&lt;/i&gt;&lt;br&gt;&lt;br&gt;&lt;b style=&quot;font-style: normal; border-color: var(--border-color);&quot;&gt;Registry state (most recent tag):&lt;br style=&quot;border-color: var(--border-color);&quot;&gt;&lt;/b&gt;&lt;span style=&quot;font-style: normal;&quot;&gt;IMAGE_TAG:&amp;nbsp;&lt;/span&gt;&lt;i style=&quot;border-color: var(--border-color);&quot;&gt;&lt;font color=&quot;#cc00cc&quot;&gt;2.4.12-6542a5ba--2023-05-11.1684860671&lt;/font&gt;&lt;/i&gt;&lt;/span&gt;" style="text;html=1;strokeColor=none;fillColor=none;align=left;verticalAlign=top;whiteSpace=wrap;rounded=0;" vertex="1" parent="WIyWlLk6GJQsqaUBKTNV-1">
          <mxGeometry x="2025" y="1274.31" width="325" height="159.75" as="geometry" />
        </mxCell>
        <mxCell id="RxuFsPBykn9zpoPj2tN5-38" value="" style="shape=curlyBracket;whiteSpace=wrap;html=1;rounded=1;labelPosition=left;verticalLabelPosition=middle;align=right;verticalAlign=middle;" vertex="1" parent="WIyWlLk6GJQsqaUBKTNV-1">
          <mxGeometry x="2350" y="1314.3700000000001" width="20" height="79.62" as="geometry" />
        </mxCell>
        <mxCell id="RxuFsPBykn9zpoPj2tN5-39" value="&lt;span style=&quot;border-color: var(--border-color);&quot;&gt;&lt;b style=&quot;border-color: var(--border-color);&quot;&gt;Repo state (&lt;/b&gt;&lt;font style=&quot;border-color: var(--border-color);&quot; face=&quot;Courier New&quot;&gt;latest&lt;/font&gt;&amp;nbsp;kustomization)&lt;b style=&quot;border-color: var(--border-color);&quot;&gt;:&lt;/b&gt;&lt;br style=&quot;border-color: var(--border-color);&quot;&gt;GIT_TAG: &lt;i style=&quot;&quot;&gt;previous tag&lt;/i&gt;&lt;i style=&quot;border-color: var(--border-color);&quot;&gt;&lt;br style=&quot;border-color: var(--border-color);&quot;&gt;&lt;/i&gt;IMAGE_TAG: &lt;i style=&quot;&quot;&gt;previous tag&lt;/i&gt;&lt;br style=&quot;border-color: var(--border-color);&quot;&gt;&lt;b style=&quot;border-color: var(--border-color);&quot;&gt;&lt;br&gt;Cluster state (deployment):&lt;br style=&quot;border-color: var(--border-color);&quot;&gt;&lt;/b&gt;GIT_TAG: n/a&lt;br style=&quot;border-color: var(--border-color);&quot;&gt;IMAGE_TAG:&amp;nbsp;&lt;i style=&quot;border-color: var(--border-color);&quot;&gt;&lt;font color=&quot;#cc00cc&quot;&gt;2.4.12-6542a5ba--2023-05-11.1684860671&lt;/font&gt;&lt;/i&gt;&lt;br style=&quot;border-color: var(--border-color);&quot;&gt;&lt;br style=&quot;border-color: var(--border-color);&quot;&gt;&lt;b style=&quot;border-color: var(--border-color);&quot;&gt;Registry state (most recent tag):&lt;br style=&quot;border-color: var(--border-color);&quot;&gt;&lt;/b&gt;&lt;span style=&quot;border-color: var(--border-color);&quot;&gt;&lt;font style=&quot;border-color: var(--border-color);&quot;&gt;IMAGE_TAG:&amp;nbsp;&lt;i style=&quot;&quot;&gt;2.4.12-6542a5ba--2023-05-11.1684860671&lt;/i&gt;&lt;/font&gt;&lt;/span&gt;&lt;span style=&quot;border-color: var(--border-color);&quot;&gt;&lt;/span&gt;&lt;br&gt;&lt;/span&gt;" style="text;html=1;strokeColor=none;fillColor=none;align=left;verticalAlign=top;whiteSpace=wrap;rounded=0;" vertex="1" parent="WIyWlLk6GJQsqaUBKTNV-1">
          <mxGeometry x="2025" y="1465.25" width="325" height="159.75" as="geometry" />
        </mxCell>
        <mxCell id="RxuFsPBykn9zpoPj2tN5-40" value="" style="shape=curlyBracket;whiteSpace=wrap;html=1;rounded=1;labelPosition=left;verticalLabelPosition=middle;align=right;verticalAlign=middle;" vertex="1" parent="WIyWlLk6GJQsqaUBKTNV-1">
          <mxGeometry x="2350" y="1695.1200000000001" width="20" height="100" as="geometry" />
        </mxCell>
        <mxCell id="RxuFsPBykn9zpoPj2tN5-41" value="&lt;span style=&quot;border-color: var(--border-color);&quot;&gt;&lt;b style=&quot;border-color: var(--border-color);&quot;&gt;Repo state (&lt;/b&gt;&lt;font style=&quot;border-color: var(--border-color);&quot; face=&quot;Courier New&quot;&gt;latest&lt;/font&gt;&amp;nbsp;kustomization)&lt;b style=&quot;border-color: var(--border-color);&quot;&gt;:&lt;/b&gt;&lt;br style=&quot;border-color: var(--border-color);&quot;&gt;GIT_TAG:&amp;nbsp;&lt;font color=&quot;#cc00cc&quot;&gt;&lt;i style=&quot;border-color: var(--border-color);&quot;&gt;&lt;font style=&quot;border-color: var(--border-color);&quot;&gt;v&lt;/font&gt;&lt;/i&gt;&lt;i style=&quot;border-color: var(--border-color);&quot;&gt;&lt;i style=&quot;border-color: var(--border-color);&quot;&gt;&lt;font style=&quot;border-color: var(--border-color);&quot;&gt;2.4.12-6542a5ba--2023-05-11.1684860671&lt;/font&gt;&lt;/i&gt;&lt;br style=&quot;border-color: var(--border-color);&quot;&gt;&lt;/i&gt;&lt;/font&gt;IMAGE_TAG:&amp;nbsp;&lt;font color=&quot;#cc00cc&quot;&gt;&lt;i style=&quot;border-color: var(--border-color);&quot;&gt;&lt;font style=&quot;border-color: var(--border-color);&quot;&gt;2.4.12-6542a5ba--2023-05-11.1684860671&lt;/font&gt;&lt;/i&gt;&lt;br style=&quot;border-color: var(--border-color);&quot;&gt;&lt;/font&gt;&lt;br style=&quot;border-color: var(--border-color);&quot;&gt;&lt;b style=&quot;border-color: var(--border-color);&quot;&gt;Cluster state (deployment):&lt;br style=&quot;border-color: var(--border-color);&quot;&gt;&lt;/b&gt;GIT_TAG: n/a&lt;br style=&quot;border-color: var(--border-color);&quot;&gt;IMAGE_TAG:&amp;nbsp;&lt;i style=&quot;border-color: var(--border-color);&quot;&gt;&lt;font style=&quot;border-color: var(--border-color);&quot;&gt;2.4.12-6542a5ba--2023-05-11.1684860671&lt;/font&gt;&lt;/i&gt;&lt;br style=&quot;border-color: var(--border-color);&quot;&gt;&lt;br style=&quot;border-color: var(--border-color);&quot;&gt;&lt;b style=&quot;border-color: var(--border-color);&quot;&gt;Registry state (most recent tag):&lt;br style=&quot;border-color: var(--border-color);&quot;&gt;&lt;/b&gt;&lt;font style=&quot;border-color: var(--border-color);&quot;&gt;IMAGE_TAG:&amp;nbsp;&lt;i style=&quot;border-color: var(--border-color);&quot;&gt;2.4.12-6542a5ba--2023-05-11.1684860671&lt;/i&gt;&lt;/font&gt;&lt;br&gt;&lt;/span&gt;" style="text;html=1;strokeColor=none;fillColor=none;align=left;verticalAlign=top;whiteSpace=wrap;rounded=0;" vertex="1" parent="WIyWlLk6GJQsqaUBKTNV-1">
          <mxGeometry x="2025" y="1665.12" width="325" height="159.75" as="geometry" />
        </mxCell>
        <mxCell id="RxuFsPBykn9zpoPj2tN5-42" value="" style="shape=curlyBracket;whiteSpace=wrap;html=1;rounded=1;labelPosition=left;verticalLabelPosition=middle;align=right;verticalAlign=middle;rotation=-180;" vertex="1" parent="WIyWlLk6GJQsqaUBKTNV-1">
          <mxGeometry x="2910" y="1144.62" width="20" height="80" as="geometry" />
        </mxCell>
        <mxCell id="RxuFsPBykn9zpoPj2tN5-43" value="" style="shape=curlyBracket;whiteSpace=wrap;html=1;rounded=1;labelPosition=left;verticalLabelPosition=middle;align=right;verticalAlign=middle;rotation=-180;" vertex="1" parent="WIyWlLk6GJQsqaUBKTNV-1">
          <mxGeometry x="2910" y="1454.1" width="20" height="180" as="geometry" />
        </mxCell>
        <mxCell id="RxuFsPBykn9zpoPj2tN5-44" value="&lt;span style=&quot;border-color: var(--border-color);&quot;&gt;&lt;b style=&quot;border-color: var(--border-color);&quot;&gt;Repo state (&lt;/b&gt;&lt;font style=&quot;border-color: var(--border-color);&quot; face=&quot;Courier New&quot;&gt;stable&lt;/font&gt;&amp;nbsp;kustomization)&lt;b style=&quot;border-color: var(--border-color);&quot;&gt;:&lt;/b&gt;&lt;br style=&quot;border-color: var(--border-color);&quot;&gt;GIT_TAG:&amp;nbsp;&lt;i style=&quot;border-color: var(--border-color);&quot;&gt;previous tag&lt;br style=&quot;border-color: var(--border-color);&quot;&gt;&lt;/i&gt;IMAGE_TAG:&amp;nbsp;&lt;i style=&quot;border-color: var(--border-color);&quot;&gt;previous tag&lt;/i&gt;&lt;br style=&quot;border-color: var(--border-color);&quot;&gt;&lt;br style=&quot;border-color: var(--border-color);&quot;&gt;&lt;b style=&quot;border-color: var(--border-color);&quot;&gt;Cluster state (deployment):&lt;br style=&quot;border-color: var(--border-color);&quot;&gt;&lt;/b&gt;GIT_TAG: n/a&lt;br style=&quot;border-color: var(--border-color);&quot;&gt;IMAGE_TAG:&amp;nbsp;&lt;i style=&quot;border-color: var(--border-color);&quot;&gt;previous tag&lt;/i&gt;&lt;br style=&quot;border-color: var(--border-color);&quot;&gt;&lt;br style=&quot;border-color: var(--border-color);&quot;&gt;&lt;b style=&quot;border-color: var(--border-color);&quot;&gt;Registry state (most recent tag):&lt;br style=&quot;border-color: var(--border-color);&quot;&gt;&lt;/b&gt;&lt;font style=&quot;border-color: var(--border-color);&quot;&gt;IMAGE_TAG:&amp;nbsp;&lt;/font&gt;&lt;i style=&quot;border-color: var(--border-color);&quot;&gt;previous tag&lt;/i&gt;&lt;br&gt;&lt;/span&gt;" style="text;html=1;strokeColor=none;fillColor=none;align=left;verticalAlign=top;whiteSpace=wrap;rounded=0;" vertex="1" parent="WIyWlLk6GJQsqaUBKTNV-1">
          <mxGeometry x="2970" y="1104.76" width="295.25" height="159.75" as="geometry" />
        </mxCell>
        <mxCell id="RxuFsPBykn9zpoPj2tN5-45" value="&lt;b&gt;Repo state (&lt;/b&gt;&lt;font style=&quot;border-color: var(--border-color);&quot; face=&quot;Courier New&quot;&gt;stable&lt;/font&gt;&amp;nbsp;kustomization)&lt;b&gt;:&lt;/b&gt;&lt;br&gt;GIT_TAG: &lt;i&gt;previous tag&lt;br&gt;&lt;/i&gt;IMAGE_TAG:&amp;nbsp;&lt;i style=&quot;border-color: var(--border-color);&quot;&gt;previous tag&lt;/i&gt;&lt;br&gt;&lt;br&gt;&lt;b&gt;Cluster state (deployment):&lt;br&gt;&lt;/b&gt;GIT_TAG: n/a&lt;br&gt;IMAGE_TAG:&amp;nbsp;&lt;span style=&quot;border-color: var(--border-color);&quot;&gt;&lt;i&gt;previous tag&lt;/i&gt;&lt;br&gt;&lt;br&gt;&lt;b style=&quot;font-style: normal; border-color: var(--border-color);&quot;&gt;Registry state (most recent tag):&lt;br style=&quot;border-color: var(--border-color);&quot;&gt;&lt;/b&gt;&lt;span style=&quot;font-style: normal;&quot;&gt;IMAGE_TAG:&amp;nbsp;&lt;/span&gt;&lt;i style=&quot;border-color: var(--border-color);&quot;&gt;&lt;font color=&quot;#cc00cc&quot;&gt;NEXT_VERSION&lt;/font&gt;&lt;/i&gt;&lt;/span&gt;" style="text;html=1;strokeColor=none;fillColor=none;align=left;verticalAlign=top;whiteSpace=wrap;rounded=0;" vertex="1" parent="WIyWlLk6GJQsqaUBKTNV-1">
          <mxGeometry x="2970" y="1274.3099999999997" width="330" height="159.75" as="geometry" />
        </mxCell>
        <mxCell id="RxuFsPBykn9zpoPj2tN5-46" value="" style="shape=curlyBracket;whiteSpace=wrap;html=1;rounded=1;labelPosition=left;verticalLabelPosition=middle;align=right;verticalAlign=middle;rotation=-180;" vertex="1" parent="WIyWlLk6GJQsqaUBKTNV-1">
          <mxGeometry x="2910" y="1313.99" width="20" height="80" as="geometry" />
        </mxCell>
        <mxCell id="RxuFsPBykn9zpoPj2tN5-48" value="" style="shape=curlyBracket;whiteSpace=wrap;html=1;rounded=1;labelPosition=left;verticalLabelPosition=middle;align=right;verticalAlign=middle;rotation=-180;" vertex="1" parent="WIyWlLk6GJQsqaUBKTNV-1">
          <mxGeometry x="2910" y="1695.12" width="20" height="100" as="geometry" />
        </mxCell>
        <mxCell id="RxuFsPBykn9zpoPj2tN5-50" value="NEXT_VERSION=semverTag" style="text;html=1;strokeColor=none;fillColor=none;align=left;verticalAlign=top;whiteSpace=wrap;rounded=0;fontColor=#000000;spacingLeft=0;spacingTop=0;" vertex="1" parent="WIyWlLk6GJQsqaUBKTNV-1">
          <mxGeometry x="2660" y="855" width="180.47" height="30" as="geometry" />
        </mxCell>
        <mxCell id="RxuFsPBykn9zpoPj2tN5-52" value="" style="rounded=0;html=1;jettySize=auto;orthogonalLoop=1;fontSize=11;endArrow=block;endFill=0;endSize=8;strokeWidth=1;shadow=0;labelBackgroundColor=none;edgeStyle=orthogonalEdgeStyle;exitX=1;exitY=0.5;exitDx=0;exitDy=0;dashed=1;dashPattern=8 8;strokeColor=#000000;entryX=1;entryY=0.5;entryDx=0;entryDy=0;" edge="1" parent="WIyWlLk6GJQsqaUBKTNV-1" source="RxuFsPBykn9zpoPj2tN5-14" target="RxuFsPBykn9zpoPj2tN5-1">
          <mxGeometry relative="1" as="geometry">
            <mxPoint x="2920" y="1050.5" as="targetPoint" />
            <mxPoint x="2770" y="1630.5" as="sourcePoint" />
            <Array as="points">
              <mxPoint x="2880" y="1015" />
              <mxPoint x="2880" y="790" />
            </Array>
          </mxGeometry>
        </mxCell>
        <mxCell id="RxuFsPBykn9zpoPj2tN5-58" value="&lt;h1&gt;Stable Pipeline&lt;/h1&gt;" style="text;html=1;strokeColor=none;fillColor=none;align=right;verticalAlign=middle;whiteSpace=wrap;rounded=0;fontColor=#0066CC;" vertex="1" parent="WIyWlLk6GJQsqaUBKTNV-1">
          <mxGeometry x="3080" y="785" width="200" height="40" as="geometry" />
        </mxCell>
        <mxCell id="RxuFsPBykn9zpoPj2tN5-59" value="&lt;h1&gt;Latest Pipeline&lt;/h1&gt;" style="text;html=1;strokeColor=none;fillColor=none;align=left;verticalAlign=middle;whiteSpace=wrap;rounded=0;fontColor=#009900;" vertex="1" parent="WIyWlLk6GJQsqaUBKTNV-1">
          <mxGeometry x="2000" y="785" width="200" height="40" as="geometry" />
        </mxCell>
        <mxCell id="RxuFsPBykn9zpoPj2tN5-60" value="" style="rounded=0;html=1;jettySize=auto;orthogonalLoop=1;fontSize=11;endArrow=block;endFill=0;endSize=8;strokeWidth=1;shadow=0;labelBackgroundColor=none;edgeStyle=orthogonalEdgeStyle;exitX=0.5;exitY=1;exitDx=0;exitDy=0;entryX=0.5;entryY=0;entryDx=0;entryDy=0;" edge="1" parent="WIyWlLk6GJQsqaUBKTNV-1" source="RxuFsPBykn9zpoPj2tN5-1" target="RxuFsPBykn9zpoPj2tN5-13">
          <mxGeometry relative="1" as="geometry">
            <mxPoint x="2484.99" y="1190.25" as="targetPoint" />
            <mxPoint x="2604.99" y="1090.25" as="sourcePoint" />
          </mxGeometry>
        </mxCell>
        <mxCell id="RxuFsPBykn9zpoPj2tN5-77" value="" style="shape=curlyBracket;whiteSpace=wrap;html=1;rounded=1;labelPosition=left;verticalLabelPosition=middle;align=right;verticalAlign=middle;rotation=-180;" vertex="1" parent="WIyWlLk6GJQsqaUBKTNV-1">
          <mxGeometry x="2910" y="904" width="20" height="180.5" as="geometry" />
        </mxCell>
        <mxCell id="RxuFsPBykn9zpoPj2tN5-78" value="" style="shape=curlyBracket;whiteSpace=wrap;html=1;rounded=1;labelPosition=left;verticalLabelPosition=middle;align=right;verticalAlign=middle;" vertex="1" parent="WIyWlLk6GJQsqaUBKTNV-1">
          <mxGeometry x="2350" y="904" width="20" height="179.5" as="geometry" />
        </mxCell>
        <mxCell id="RxuFsPBykn9zpoPj2tN5-79" value="verify" style="text;html=1;strokeColor=none;fillColor=none;align=left;verticalAlign=middle;whiteSpace=wrap;rounded=0;fontSize=16;fontColor=#FFB366;" vertex="1" parent="WIyWlLk6GJQsqaUBKTNV-1">
          <mxGeometry x="2370" y="915" width="60" height="30" as="geometry" />
        </mxCell>
        <mxCell id="RxuFsPBykn9zpoPj2tN5-80" value="get info" style="text;html=1;strokeColor=none;fillColor=none;align=left;verticalAlign=middle;whiteSpace=wrap;rounded=0;fontSize=16;fontColor=#66CC00;" vertex="1" parent="WIyWlLk6GJQsqaUBKTNV-1">
          <mxGeometry x="2370" y="1155.63" width="60" height="30" as="geometry" />
        </mxCell>
        <mxCell id="RxuFsPBykn9zpoPj2tN5-81" value="build" style="text;html=1;strokeColor=none;fillColor=none;align=left;verticalAlign=middle;whiteSpace=wrap;rounded=0;fontSize=16;fontColor=#00CCCC;" vertex="1" parent="WIyWlLk6GJQsqaUBKTNV-1">
          <mxGeometry x="2370" y="1325.19" width="60" height="29.81" as="geometry" />
        </mxCell>
        <mxCell id="RxuFsPBykn9zpoPj2tN5-82" value="FluxCD" style="text;html=1;strokeColor=none;fillColor=none;align=left;verticalAlign=middle;whiteSpace=wrap;rounded=0;fontSize=16;fontColor=#9933FF;" vertex="1" parent="WIyWlLk6GJQsqaUBKTNV-1">
          <mxGeometry x="2370" y="1465.24" width="60" height="30" as="geometry" />
        </mxCell>
        <mxCell id="RxuFsPBykn9zpoPj2tN5-83" value="&lt;span style=&quot;border-color: var(--border-color);&quot;&gt;&lt;b style=&quot;border-color: var(--border-color);&quot;&gt;Repo state (&lt;/b&gt;&lt;font style=&quot;border-color: var(--border-color);&quot; face=&quot;Courier New&quot;&gt;latest&lt;/font&gt;&amp;nbsp;kustomization)&lt;b style=&quot;border-color: var(--border-color);&quot;&gt;:&lt;/b&gt;&lt;br style=&quot;border-color: var(--border-color);&quot;&gt;GIT_TAG:&amp;nbsp;&lt;i style=&quot;border-color: var(--border-color);&quot;&gt;previous tag&lt;br style=&quot;border-color: var(--border-color);&quot;&gt;&lt;/i&gt;IMAGE_TAG:&amp;nbsp;&lt;i style=&quot;border-color: var(--border-color);&quot;&gt;previous tag&lt;/i&gt;&lt;br style=&quot;border-color: var(--border-color);&quot;&gt;&lt;br style=&quot;border-color: var(--border-color);&quot;&gt;&lt;b style=&quot;border-color: var(--border-color);&quot;&gt;Cluster state (deployment):&lt;br style=&quot;border-color: var(--border-color);&quot;&gt;&lt;/b&gt;GIT_TAG: n/a&lt;br style=&quot;border-color: var(--border-color);&quot;&gt;IMAGE_TAG:&amp;nbsp;&lt;i style=&quot;border-color: var(--border-color);&quot;&gt;previous tag&lt;/i&gt;&lt;br style=&quot;border-color: var(--border-color);&quot;&gt;&lt;br style=&quot;border-color: var(--border-color);&quot;&gt;&lt;b style=&quot;border-color: var(--border-color);&quot;&gt;Registry state (most recent tag):&lt;br style=&quot;border-color: var(--border-color);&quot;&gt;&lt;/b&gt;&lt;font style=&quot;border-color: var(--border-color);&quot;&gt;IMAGE_TAG:&amp;nbsp;&lt;/font&gt;&lt;i style=&quot;border-color: var(--border-color);&quot;&gt;previous tag&lt;/i&gt;&lt;br&gt;&lt;/span&gt;" style="text;html=1;strokeColor=none;fillColor=none;align=left;verticalAlign=top;whiteSpace=wrap;rounded=0;" vertex="1" parent="WIyWlLk6GJQsqaUBKTNV-1">
          <mxGeometry x="2100" y="915.13" width="240" height="159.75" as="geometry" />
        </mxCell>
        <mxCell id="RxuFsPBykn9zpoPj2tN5-84" value="&lt;span style=&quot;border-color: var(--border-color);&quot;&gt;&lt;b style=&quot;border-color: var(--border-color);&quot;&gt;Repo state (&lt;/b&gt;&lt;font style=&quot;border-color: var(--border-color);&quot; face=&quot;Courier New&quot;&gt;stable&lt;/font&gt;&amp;nbsp;kustomization)&lt;b style=&quot;border-color: var(--border-color);&quot;&gt;:&lt;/b&gt;&lt;br style=&quot;border-color: var(--border-color);&quot;&gt;GIT_TAG:&amp;nbsp;&lt;i style=&quot;border-color: var(--border-color);&quot;&gt;previous tag&lt;br style=&quot;border-color: var(--border-color);&quot;&gt;&lt;/i&gt;IMAGE_TAG:&amp;nbsp;&lt;i style=&quot;border-color: var(--border-color);&quot;&gt;previous tag&lt;/i&gt;&lt;br style=&quot;border-color: var(--border-color);&quot;&gt;&lt;br style=&quot;border-color: var(--border-color);&quot;&gt;&lt;b style=&quot;border-color: var(--border-color);&quot;&gt;Cluster state (deployment):&lt;br style=&quot;border-color: var(--border-color);&quot;&gt;&lt;/b&gt;GIT_TAG: n/a&lt;br style=&quot;border-color: var(--border-color);&quot;&gt;IMAGE_TAG:&amp;nbsp;&lt;i style=&quot;border-color: var(--border-color);&quot;&gt;previous tag&lt;/i&gt;&lt;br style=&quot;border-color: var(--border-color);&quot;&gt;&lt;br style=&quot;border-color: var(--border-color);&quot;&gt;&lt;b style=&quot;border-color: var(--border-color);&quot;&gt;Registry state (most recent tag):&lt;br style=&quot;border-color: var(--border-color);&quot;&gt;&lt;/b&gt;&lt;font style=&quot;border-color: var(--border-color);&quot;&gt;IMAGE_TAG:&amp;nbsp;&lt;/font&gt;&lt;i style=&quot;border-color: var(--border-color);&quot;&gt;previous tag&lt;/i&gt;&lt;br&gt;&lt;/span&gt;" style="text;html=1;strokeColor=none;fillColor=none;align=left;verticalAlign=top;whiteSpace=wrap;rounded=0;" vertex="1" parent="WIyWlLk6GJQsqaUBKTNV-1">
          <mxGeometry x="2970" y="915.13" width="295.25" height="159.75" as="geometry" />
        </mxCell>
        <mxCell id="RxuFsPBykn9zpoPj2tN5-85" value="&lt;span style=&quot;border-color: var(--border-color);&quot;&gt;&lt;b style=&quot;border-color: var(--border-color);&quot;&gt;Repo state (&lt;/b&gt;&lt;font style=&quot;border-color: var(--border-color);&quot; face=&quot;Courier New&quot;&gt;latest&lt;/font&gt;&amp;nbsp;kustomization)&lt;b style=&quot;border-color: var(--border-color);&quot;&gt;:&lt;/b&gt;&lt;br style=&quot;border-color: var(--border-color);&quot;&gt;GIT_TAG: &lt;i style=&quot;&quot;&gt;previous tag&lt;/i&gt;&lt;i style=&quot;border-color: var(--border-color);&quot;&gt;&lt;br style=&quot;border-color: var(--border-color);&quot;&gt;&lt;/i&gt;IMAGE_TAG: &lt;i style=&quot;&quot;&gt;previous tag&lt;/i&gt;&lt;br style=&quot;border-color: var(--border-color);&quot;&gt;&lt;b style=&quot;border-color: var(--border-color);&quot;&gt;&lt;br&gt;Cluster state (deployment):&lt;br style=&quot;border-color: var(--border-color);&quot;&gt;&lt;/b&gt;GIT_TAG: n/a&lt;br style=&quot;border-color: var(--border-color);&quot;&gt;IMAGE_TAG:&amp;nbsp;&lt;i style=&quot;border-color: var(--border-color);&quot;&gt;&lt;font color=&quot;#cc00cc&quot;&gt;NEXT_VERSION&lt;/font&gt;&lt;/i&gt;&lt;br style=&quot;border-color: var(--border-color);&quot;&gt;&lt;br style=&quot;border-color: var(--border-color);&quot;&gt;&lt;b style=&quot;border-color: var(--border-color);&quot;&gt;Registry state (most recent tag):&lt;br style=&quot;border-color: var(--border-color);&quot;&gt;&lt;/b&gt;&lt;span style=&quot;border-color: var(--border-color);&quot;&gt;&lt;font style=&quot;border-color: var(--border-color);&quot;&gt;IMAGE_TAG:&amp;nbsp;&lt;i style=&quot;&quot;&gt;NEXT_VERSION&lt;/i&gt;&lt;/font&gt;&lt;/span&gt;&lt;br&gt;&lt;/span&gt;" style="text;html=1;strokeColor=none;fillColor=none;align=left;verticalAlign=top;whiteSpace=wrap;rounded=0;" vertex="1" parent="WIyWlLk6GJQsqaUBKTNV-1">
          <mxGeometry x="2970" y="1465.26" width="325" height="159.75" as="geometry" />
        </mxCell>
        <mxCell id="RxuFsPBykn9zpoPj2tN5-87" value="&lt;span style=&quot;border-color: var(--border-color);&quot;&gt;&lt;b style=&quot;border-color: var(--border-color);&quot;&gt;Repo state (&lt;/b&gt;&lt;font style=&quot;border-color: var(--border-color);&quot; face=&quot;Courier New&quot;&gt;latest&lt;/font&gt;&amp;nbsp;kustomization)&lt;b style=&quot;border-color: var(--border-color);&quot;&gt;:&lt;/b&gt;&lt;br style=&quot;border-color: var(--border-color);&quot;&gt;GIT_TAG: &lt;i&gt;&lt;font color=&quot;#cc00cc&quot;&gt;NEXT_VERSION&lt;/font&gt;&lt;/i&gt;&lt;font color=&quot;#cc00cc&quot;&gt;&lt;i style=&quot;border-color: var(--border-color);&quot;&gt;&lt;br style=&quot;border-color: var(--border-color);&quot;&gt;&lt;/i&gt;&lt;/font&gt;IMAGE_TAG:&amp;nbsp;&lt;font color=&quot;#cc00cc&quot;&gt;&lt;i style=&quot;border-color: var(--border-color);&quot;&gt;&lt;font style=&quot;border-color: var(--border-color);&quot;&gt;NEXT_VERSION&lt;/font&gt;&lt;/i&gt;&lt;br style=&quot;border-color: var(--border-color);&quot;&gt;&lt;/font&gt;&lt;br style=&quot;border-color: var(--border-color);&quot;&gt;&lt;b style=&quot;border-color: var(--border-color);&quot;&gt;Cluster state (deployment):&lt;br style=&quot;border-color: var(--border-color);&quot;&gt;&lt;/b&gt;GIT_TAG: n/a&lt;br style=&quot;border-color: var(--border-color);&quot;&gt;IMAGE_TAG:&amp;nbsp;&lt;i style=&quot;border-color: var(--border-color);&quot;&gt;&lt;font style=&quot;border-color: var(--border-color);&quot;&gt;NEXT_VERSION&lt;/font&gt;&lt;/i&gt;&lt;br style=&quot;border-color: var(--border-color);&quot;&gt;&lt;br style=&quot;border-color: var(--border-color);&quot;&gt;&lt;b style=&quot;border-color: var(--border-color);&quot;&gt;Registry state (most recent tag):&lt;br style=&quot;border-color: var(--border-color);&quot;&gt;&lt;/b&gt;&lt;font style=&quot;border-color: var(--border-color);&quot;&gt;IMAGE_TAG:&amp;nbsp;&lt;i style=&quot;border-color: var(--border-color);&quot;&gt;NEXT_VERSION&lt;/i&gt;&lt;/font&gt;&lt;br&gt;&lt;/span&gt;" style="text;html=1;strokeColor=none;fillColor=none;align=left;verticalAlign=top;whiteSpace=wrap;rounded=0;" vertex="1" parent="WIyWlLk6GJQsqaUBKTNV-1">
          <mxGeometry x="2970" y="1665.25" width="325" height="159.75" as="geometry" />
        </mxCell>
        <mxCell id="RxuFsPBykn9zpoPj2tN5-89" value="" style="rounded=0;html=1;jettySize=auto;orthogonalLoop=1;fontSize=11;endArrow=block;endFill=0;endSize=8;strokeWidth=1;shadow=0;labelBackgroundColor=none;edgeStyle=orthogonalEdgeStyle;exitX=0.5;exitY=1;exitDx=0;exitDy=0;entryX=0.5;entryY=0;entryDx=0;entryDy=0;" edge="1" parent="WIyWlLk6GJQsqaUBKTNV-1" source="xA1c-mV5jnr1yYVfnVHg-30" target="J_il53s5iSnK6nftCSh8-12">
          <mxGeometry relative="1" as="geometry">
            <mxPoint x="2619.95" y="-122.63" as="targetPoint" />
            <mxPoint x="2619.95" y="-165.63" as="sourcePoint" />
          </mxGeometry>
        </mxCell>
        <mxCell id="RxuFsPBykn9zpoPj2tN5-91" value="get info" style="text;html=1;strokeColor=none;fillColor=none;align=left;verticalAlign=middle;whiteSpace=wrap;rounded=0;fontSize=16;fontColor=#66CC00;" vertex="1" parent="WIyWlLk6GJQsqaUBKTNV-1">
          <mxGeometry x="2310" y="-325.63" width="60" height="30" as="geometry" />
        </mxCell>
        <mxCell id="RxuFsPBykn9zpoPj2tN5-95" value="FluxCD" style="text;html=1;strokeColor=none;fillColor=none;align=left;verticalAlign=middle;whiteSpace=wrap;rounded=0;fontSize=16;fontColor=#9933FF;" vertex="1" parent="WIyWlLk6GJQsqaUBKTNV-1">
          <mxGeometry x="2310.01" y="105.50999999999999" width="60" height="30" as="geometry" />
        </mxCell>
        <mxCell id="RxuFsPBykn9zpoPj2tN5-96" value="Apply ConfigMap to configuration image&lt;br&gt;&lt;br&gt;&lt;i&gt;&quot;deploy-vars&quot;&lt;/i&gt;" style="rounded=1;whiteSpace=wrap;html=1;fontSize=12;glass=0;strokeWidth=1;shadow=0;align=center;spacingLeft=5;spacingRight=5;spacing=5;" vertex="1" parent="WIyWlLk6GJQsqaUBKTNV-1">
          <mxGeometry x="2482.5" y="304.45" width="120" height="90.05" as="geometry" />
        </mxCell>
        <mxCell id="RxuFsPBykn9zpoPj2tN5-97" value="" style="rounded=0;html=1;jettySize=auto;orthogonalLoop=1;fontSize=11;endArrow=block;endFill=0;endSize=8;strokeWidth=1;shadow=0;labelBackgroundColor=none;edgeStyle=orthogonalEdgeStyle;exitX=0.5;exitY=1;exitDx=0;exitDy=0;entryX=0.5;entryY=0;entryDx=0;entryDy=0;" edge="1" parent="WIyWlLk6GJQsqaUBKTNV-1" source="J_il53s5iSnK6nftCSh8-21" target="xA1c-mV5jnr1yYVfnVHg-39">
          <mxGeometry relative="1" as="geometry">
            <mxPoint x="2620" y="214.37" as="targetPoint" />
            <mxPoint x="2630" y="493.37" as="sourcePoint" />
          </mxGeometry>
        </mxCell>
        <mxCell id="RxuFsPBykn9zpoPj2tN5-99" value="build" style="text;html=1;strokeColor=none;fillColor=none;align=left;verticalAlign=middle;whiteSpace=wrap;rounded=0;fontSize=16;fontColor=#FF9933;" vertex="1" parent="WIyWlLk6GJQsqaUBKTNV-1">
          <mxGeometry x="2310" y="-234.29999999999995" width="60" height="29.81" as="geometry" />
        </mxCell>
        <mxCell id="RxuFsPBykn9zpoPj2tN5-100" style="edgeStyle=orthogonalEdgeStyle;rounded=0;orthogonalLoop=1;jettySize=auto;html=1;exitX=1;exitY=0.5;exitDx=0;exitDy=0;entryX=1;entryY=0.5;entryDx=0;entryDy=0;startArrow=block;startFill=0;dashed=1;endArrow=block;endFill=0;" edge="1" parent="WIyWlLk6GJQsqaUBKTNV-1" source="xA1c-mV5jnr1yYVfnVHg-37" target="J_il53s5iSnK6nftCSh8-13">
          <mxGeometry relative="1" as="geometry">
            <mxPoint x="2790" y="474.37" as="sourcePoint" />
            <mxPoint x="2890" y="54.370000000000005" as="targetPoint" />
            <Array as="points">
              <mxPoint x="2880" y="539.37" />
              <mxPoint x="2880" y="349.37" />
            </Array>
          </mxGeometry>
        </mxCell>
      </root>
    </mxGraphModel>
  </diagram>
</mxfile>
